<svg width="50" height="43" viewBox="0 0 50 43" fill="none" xmlns="http://www.w3.org/2000/svg">

<g id="Frame 31">
<g id="MacBook Pro 14&#34; - 2" clip-path="url(#clip0_0_1)">
<rect width="1512" height="822" transform="translate(-1166 -376.654)" fill="#279F77"/>
<g id="Group 12">
<g id="Group">
<path id="Vector" d="M5.195 20.8426L5.02414 25.0599C5.0103 25.4 5.32697 25.5641 5.53786 25.8302L7.6204 28.4579C7.88847 28.796 7.94679 28.8586 8.29476 28.9269L14.753 30.1944C15.4723 30.3355 15.9982 30.5636 16.5368 31.0657L25.8129 39.6935L34.5073 36.5386L42.0814 42.8802L47.5564 38.2203C48.1933 37.6781 48.8174 37.227 49.3766 36.5234C49.0324 36.5388 48.6754 36.1801 48.4195 36.1592C47.1977 36.0595 46.1716 35.5921 45.001 35.3328L41.634 34.5867L40.0574 34.2171C39.6814 34.1291 39.2766 33.9671 38.9018 33.8894L37.5354 33.6065C37.1769 33.5322 36.9464 33.2794 36.6611 33.1508C35.8366 32.7797 35.0464 32.4599 34.3716 31.8165C33.8974 31.3645 33.1337 31.297 32.6008 30.9776C31.8193 30.5095 31.1517 30.0678 30.3431 29.7767L29.2896 29.6609L25.7292 28.0895L29.8668 21.9877L30.1841 15.8378L33.2137 13.762C33.413 13.6254 33.4792 13.4401 33.5213 13.2958L33.441 8.84502L31.0604 0L18.2175 17.9403C17.2846 19.2433 16.4182 20.3605 15.5344 21.7822L11.8593 18.9463L6.41256 18.973C5.98798 19.5894 5.22218 20.1719 5.195 20.8426Z" fill="#F3D55E"/>
<path id="Vector_2" d="M33.5218 13.2961C33.4798 13.4403 33.4134 13.6258 33.2142 13.7622L30.1847 15.838L29.8673 21.988L25.7298 28.0897L29.2902 29.6611L30.3437 29.7769C30.4282 29.426 30.67 29.2408 31.019 29.0574L38.6195 25.0655C39.5308 24.5868 40.1191 24.127 39.9308 23.0622L32.9098 25.0653L41.0678 19.5692L41.7886 16.1661L34.3481 19.2089C35.7822 17.6446 37.4176 16.712 38.8971 15.4625L42.3966 12.7759C42.7262 12.5227 42.7981 12.2361 42.8742 11.7903L43.6751 7.0946L36.2649 11.7445C35.3269 12.3332 34.5079 12.9843 33.5218 13.2961Z" fill="#F5F3EA"/>
<path id="Vector_3" d="M8.29487 28.9269L11.7083 34.647L13.3253 37.3158L25.3566 40.0348C25.5174 40.0712 25.6921 40.0215 25.7169 39.954L25.8131 39.6934L16.5371 31.0656C15.9985 30.5636 15.4726 30.3357 14.7532 30.1944L8.29504 28.9269H8.29487Z" fill="#F5F3EA"/>
<path id="Vector_4" d="M41.7886 16.1657C41.8482 16.025 41.9295 15.9075 42.0171 15.8062L42.5717 12.7646L42.3966 12.7753L38.8971 15.462C37.4176 16.7115 35.7822 17.6441 34.3481 19.2084L41.7886 16.1657Z" fill="#F3D55E"/>
<path id="Vector_5" d="M39.9308 23.0619C40.8712 22.5105 40.8361 20.7075 41.0678 19.569L32.9098 25.0651L39.9308 23.0619Z" fill="#F3D55E"/>
<path id="Vector_6" d="M5.02425 25.0599L5.19511 20.8427C3.48524 21.5126 1.57223 21.6084 0.000106335 22.3989L5.02425 25.0599Z" fill="#F5F3EA"/>
</g>
</g>
</g>
</g>
<defs>
<clipPath id="clip0_0_1">
<rect width="1512" height="822" fill="white" transform="translate(-1166 -376.654)"/>
</clipPath>
</defs>
</svg>
