<svg width="126" height="73" viewBox="0 0 126 73" fill="none" xmlns="http://www.w3.org/2000/svg">

<g id="Frame 31">
<g id="MacBook Pro 14&#34; - 5">

<g id="Frame 18">
<g id="Frame 23">
<g id="Frame 29">
<g id="Frame 25" filter="url(#filter0_d_0_1)">
<g clip-path="url(#clip0_0_1)">

<g id="Frame 21">
<g id="Group 15">
<g id="Group">
<path id="Vector" d="M124.931 74.4447L85.2564 74.1412L84.5666 63.1773C81.3697 67.2269 76.6932 69.848 72.0081 67.4759C66.1363 64.5029 60.8176 60.4062 56.6709 55.692C59.3019 53.2973 61.406 50.4081 62.47 47.3836C65.474 46.8848 68.597 49.5305 75.2715 53.7685L88.018 39.5685C89.5416 37.8708 91.6964 37.145 93.6236 36.6596L98.7763 49.5305L106.394 36.2563C118.076 37.8304 124.347 52.6308 125.841 64.211L124.93 74.4441L124.931 74.4447Z" fill="#715252"/>
<path id="Vector_2" d="M81.5248 36.7212C82.3647 28.564 79.5323 21.6986 81.7354 12.5193C83.4922 5.19929 89.2321 0.69869 96.597 0.0989371C102.632 -0.391881 108.91 0.862099 112.886 5.69746C119.087 13.239 116.495 24.9403 121.614 34.4342L81.5248 36.7206V36.7212Z" fill="#CA8477"/>
<path id="Vector_3" d="M107.244 34.97C107.189 35.4786 106.675 35.7674 106.394 36.2564L98.7763 49.5305L93.6236 36.6597C93.4942 36.3366 93.3507 35.6995 93.4148 35.3929C93.8305 33.399 93.1487 32.2693 91.6214 31.3929C86.0847 28.2142 83.1192 22.2901 84.3047 15.9756C84.6954 13.8948 85.8686 12.2504 87.7213 11.1543C93.7463 14.6647 100.493 17.538 107.729 17.691C108.646 17.7106 109.972 16.1855 110.771 16.5435C111.579 16.9064 112.777 17.6837 113.087 18.6635C114.29 22.4713 111.61 24.4749 108.931 26.4021C106.404 28.2197 106.177 32.672 107.244 34.9706V34.97Z" fill="#F5DCBF"/>
</g>
<path id="Vector_4" d="M38.2034 33.8031C40.2319 37.0815 40.8362 41.0962 39.8748 44.7082C39.8748 44.7082 37.9891 45.2033 37.1901 45.262C36.7841 46.1145 36.927 48.4787 37.5496 49.3134C36.7744 50.2724 35.8331 51.1365 34.7209 51.8703C33.5146 52.6659 32.3914 53.0753 32.6619 54.6169C31.2805 56.6598 29.0908 57.3905 26.646 55.8367C23.8167 57.6769 21.132 56.6365 19.1676 54.5178C19.377 51.251 17.4279 51.3097 14.7352 48.9988C13.761 48.1623 13.656 47.3287 13.4356 46.1451C11.9016 37.8918 19.0241 29.1005 19.6529 29.065C22.16 28.9242 38.2034 33.8031 38.2034 33.8031Z" fill="#F5DCBF"/>
<path id="Vector_5" d="M37.7316 31.0787C38.1961 31.8382 38.0203 33.0708 38.2035 33.8033C38.2035 33.8033 36.2006 39.3419 27.3029 40.5236L26.3879 38.0359C23.2155 45.8211 17.8729 45.0199 17.8729 45.0199C17.8729 45.0199 15.8811 43.2635 15.1479 43.3382C13.6115 43.4949 13.3752 45.0438 13.4357 46.1448C13.5016 47.3468 13.7604 48.1619 14.7353 48.9985C13.8837 48.952 13.0932 48.4973 12.5432 47.7574C10.0301 52.5603 4.97016 54.6956 0 53.3327C5.28759 49.3529 -3.1413 36.1858 11.7338 34.9661C15.0698 21.703 31.836 21.4399 37.7316 31.0781V31.0787Z" fill="#2C6890"/>
<path id="Vector_6" d="M33.3999 43.2413C34.1871 43.2413 34.8253 42.6015 34.8253 41.8123C34.8253 41.0231 34.1871 40.3833 33.3999 40.3833C32.6127 40.3833 31.9745 41.0231 31.9745 41.8123C31.9745 42.6015 32.6127 43.2413 33.3999 43.2413Z" fill="#2C6890"/>
<path id="Vector_7" d="M44.1338 73.8376C44.1338 61.3603 37.9007 57.6192 32.6613 54.6167C31.2799 56.6595 29.0903 57.3903 26.6455 55.8364C23.8161 57.6767 21.1314 56.6363 19.167 54.5176C14.4917 57.8615 7.74335 61.2054 7.74335 73.5738L44.1338 73.8376Z" fill="#E66E61"/>
<path id="Vector_8" d="M57.0805 55.8843C60.8456 55.8843 63.8979 52.8243 63.8979 49.0496C63.8979 45.2749 60.8456 42.2148 57.0805 42.2148C53.3154 42.2148 50.2632 45.2749 50.2632 49.0496C50.2632 52.8243 53.3154 55.8843 57.0805 55.8843Z" fill="#F5DCBF"/>
<path id="Vector_9" d="M90.2247 20.8019C91.0119 20.8019 91.6501 20.1621 91.6501 19.3729C91.6501 18.5836 91.0119 17.9438 90.2247 17.9438C89.4375 17.9438 88.7993 18.5836 88.7993 19.3729C88.7993 20.1621 89.4375 20.8019 90.2247 20.8019Z" fill="#6B450F"/>
<path id="Vector_10" d="M100.279 18.4205C101.066 18.4205 101.704 17.7807 101.704 16.9915C101.704 16.2023 101.066 15.5625 100.279 15.5625C99.4914 15.5625 98.8532 16.2023 98.8532 16.9915C98.8532 17.7807 99.4914 18.4205 100.279 18.4205Z" fill="#6B450F"/>
<path id="Vector_11" d="M101.391 22.394L93.2298 25.7527C93.9751 28.7594 96.9968 30.0109 99.4025 29.1517C103.745 27.6003 101.942 23.2104 101.391 22.394Z" fill="#B09174"/>
</g>
</g>
</g>
</g>
</g>
</g>
</g>
</g>
</g>
<defs>
<filter id="filter0_d_0_1" x="-410" y="-222.955" width="588" height="303.8" filterUnits="userSpaceOnUse" color-interpolation-filters="sRGB">
<feFlood flood-opacity="0" result="BackgroundImageFix"/>
<feColorMatrix in="SourceAlpha" type="matrix" values="0 0 0 0 0 0 0 0 0 0 0 0 0 0 0 0 0 0 127 0" result="hardAlpha"/>
<feOffset dx="-8" dy="8"/>
<feComposite in2="hardAlpha" operator="out"/>
<feColorMatrix type="matrix" values="0 0 0 0 0 0 0 0 0 0 0 0 0 0 0 0 0 0 0.03 0"/>
<feBlend mode="normal" in2="BackgroundImageFix" result="effect1_dropShadow_0_1"/>
<feBlend mode="normal" in="SourceGraphic" in2="effect1_dropShadow_0_1" result="shape"/>
</filter>
<clipPath id="clip0_0_1">
<rect x="-402" y="-222.955" width="580" height="295.8" rx="20" fill="white"/>
</clipPath>
</defs>
</svg>
