<svg width="1512" height="218" viewBox="0 530 1512 218" fill="none" xmlns="http://www.w3.org/2000/svg">

<g id="Frame 31">
<g id="MacBook Pro 14&#34; - 1" clip-path="url(#clip0_0_1)">

<g id="Group 10">
<path id="Vector 1" d="M382.126 694.646C313.753 692.646 57.3523 663.812 0 641.646V747.646H1512V641.646C1434.14 650.146 1274.62 667.146 1259.42 667.146C1240.41 667.146 1037.84 641.646 977.823 641.646C917.804 641.646 450.5 696.646 382.126 694.646Z" fill="#279F77"/>
<g id="Group 7">
<path id="Vector" d="M159.08 644.835L159.603 654.632L161.067 681.679L161.62 693.498L146.887 694.451L148.994 661.128C148.907 659.708 149.062 658.53 149.172 657.173L149.342 655.081C149.787 653.666 149.496 652.136 149.597 650.711L150.062 644.183L150.393 638.815L147.13 634.475L138.946 624.233C138.317 623.446 137.866 622.658 137.083 621.909L139.366 619.772C140.287 620.881 141.234 621.64 142.238 622.555L150.964 630.519L152.629 604.437L156.994 604.58L157.615 618.031L157.908 621.733L170.293 610.464C171.141 611.239 171.808 611.873 172.285 612.774L158.224 628.935L159.08 644.835V644.835Z" fill="#2C6890"/>
<path id="Vector_2" d="M118 606.916C118.51 600.788 120.192 595.019 122.489 589.34C125.129 582.81 131.105 576.972 137.31 573.703C138.158 573.256 138.832 572.782 139.775 572.44C144.141 570.853 148.553 569.611 153.257 569.497C157.201 569.401 162.244 571.032 166.165 572.466C169.248 573.594 171.963 575.376 174.527 577.471L180.086 582.936C182.101 584.916 183.365 587.355 184.932 589.646C185.706 590.778 186.239 591.934 186.584 593.292C187.194 595.688 188.052 598.007 188.323 600.496L188.486 607.801C188.631 614.27 186.993 620.632 184.236 626.527C182.94 629.299 181.173 631.674 179.346 634.05C178.62 634.995 177.645 635.623 176.808 636.383C176.06 637.063 175.422 637.734 174.591 638.348C172.308 640.035 169.835 641.308 167.19 642.45C164.543 643.592 161.759 644.031 159.08 644.836L158.224 628.936L172.285 612.774C171.809 611.874 171.141 611.239 170.293 610.465L157.908 621.734L157.615 618.032L156.994 604.581L152.629 604.437L150.964 630.519L142.238 622.556C141.234 621.641 140.287 620.882 139.366 619.772L137.083 621.91C137.866 622.659 138.317 623.446 138.946 624.233L147.13 634.475L150.393 638.816L150.062 644.184C149.665 644.472 149.175 644.384 148.639 644.277C143.354 643.223 138.513 641.12 133.767 638.64C127.157 635.186 122.583 628.452 120.489 621.441L118.961 616.322" fill="#8CCA77"/>
<path id="Vector_3" d="M170.482 600.571C171.517 599.729 172.06 598.415 172.87 597.431C174.043 596.008 174.377 594.519 174.325 592.597C174.301 591.721 174.446 590.517 173.417 590.068C171.834 589.377 170.067 589.634 168.3 589.935C167.079 588.563 165.123 587.541 163.288 588.216C162.182 588.623 161.573 590.072 160.826 590.922C160.401 591.406 159.833 591.92 159.999 592.621C160.505 594.755 161.243 596.817 162.083 598.786C162.536 599.85 163.304 600.233 164.37 600.284L168.768 600.494C169.261 600.518 169.994 600.968 170.482 600.571H170.482Z" fill="#97C464"/>
<path id="Vector_4" d="M133.718 614.256C135.879 613.093 137.911 612.181 140.044 611.319L140.538 606.706C140.658 605.586 140.354 604.508 139.708 603.648L137.605 600.85C136.083 601.596 134.825 602.449 133.485 603.332C132.729 603.831 130.3 603.082 128.084 604.161C127.403 606.091 127.289 608.001 127.523 610.066C129.524 611.619 131.487 613.139 133.718 614.257L133.718 614.256Z" fill="#97C464"/>
<path id="Vector_5" d="M170.482 600.571C169.994 600.968 169.262 600.518 168.768 600.494L164.37 600.284C163.304 600.233 162.536 599.85 162.083 598.786C161.243 596.817 160.506 594.755 159.999 592.621C159.833 591.92 160.401 591.406 160.827 590.922C161.573 590.073 162.182 588.623 163.288 588.216C165.123 587.54 167.079 588.563 168.3 589.935C170.068 589.634 171.834 589.377 173.417 590.068C174.446 590.517 174.301 591.721 174.325 592.597C174.378 594.519 174.043 596.008 172.871 597.431C172.06 598.415 171.517 599.729 170.482 600.571Z" fill="#E66E61"/>
<path id="Vector_6" d="M133.718 614.256C131.486 613.139 129.524 611.619 127.523 610.066C127.288 608 127.403 606.09 128.084 604.161C130.299 603.082 132.729 603.831 133.485 603.332C134.824 602.448 136.083 601.595 137.605 600.85L139.708 603.648C140.354 604.508 140.658 605.586 140.538 606.705L140.044 611.318C137.911 612.18 135.879 613.093 133.718 614.256L133.718 614.256Z" fill="#E66E61"/>
</g>
<g id="Group 8">
<g id="Group">
<path id="Vector_7" d="M251.019 668.797L250.709 667.976L250.094 654.949C250.377 654.051 251.347 653.296 251.921 652.572L262.123 639.713L266.406 634.301L263.957 631.913L257.423 637.987L249.552 645.209L248.92 634.974L247.369 606.312L242.409 606.501C242.543 607.77 242.309 608.975 242.2 610.227L241.96 612.998C241.854 614.216 241.78 615.297 241.714 616.487L241.521 619.956L241.253 623.163L241.099 626.762C241.089 627.011 240.917 627.212 240.776 627.255C240.651 627.294 240.328 627.242 240.189 627.086L237.926 624.559C237.43 624.005 237.215 623.694 236.726 623.169L233.614 619.825L229.266 614.938C228.927 614.558 227.406 615.958 226.661 617.13L230.947 623.436L240.173 636.613C240.47 638.525 240.3 640.353 240.121 642.269L239.881 644.84L239.678 648.497L239.42 652.881L239.197 657.501L238.986 660.049C238.873 661.401 238.741 662.626 238.701 663.968L238.592 667.6C238.572 668.294 238.468 668.923 238.4 669.52L228.344 669.138L219.879 668.891L210.639 668.632L197.343 668.253L199.426 662.61L210.348 633.443L232.322 575.235L236.342 564.635L245.077 542L252.164 560.797L290.077 662.328L292 667.636L251.019 668.798V668.797ZM262.294 600.827C263.001 599.728 262.832 597.198 262.331 595.569L259.941 595.419C258.566 595.619 257.545 595.758 256.395 594.741C255.717 594.142 254.022 593.43 253.149 594.121C252.072 594.973 250.779 596.455 250.517 597.806C250.259 599.132 251.282 600.446 251.626 601.656C251.885 602.569 252.235 603.829 253.028 604.309C254.158 604.993 255.624 604.526 256.858 604.633C257.895 604.723 258.735 605.058 259.737 604.796L262.294 600.827ZM222.443 653.665L228.083 650.93C228.468 648.777 228.947 645.514 228.006 644.256L225.939 641.494L222.395 643.639C221.09 644.429 219.705 643.127 217.183 644.276C216.758 645.902 216.255 648.063 216.862 649.679C218.292 651.444 220.39 652.616 222.443 653.665V653.665Z" fill="#8CCA77"/>
<g id="Group_2">
<path id="Vector_8" d="M251.019 668.797L251.05 671.087C251.054 671.377 251.1 671.65 251.261 671.876L251.309 675.478C251.327 676.83 251.51 678.016 251.515 679.423C251.518 680.529 251.99 681.674 251.747 682.844C251.534 683.874 251.959 684.867 251.953 685.818C251.944 687.207 252.06 688.417 252.17 689.752C252.3 691.322 252.273 692.801 252.404 694.369L252.617 696.928L252.717 701.965C252.736 702.907 253.173 703.898 252.721 704.806C252.546 705.158 251.724 705.152 251.347 705.167L247.389 705.327C246.176 705.376 245.108 705.561 243.899 705.573L240.681 705.603C239.203 705.844 237.903 705.932 236.38 705.769L236.351 702.89C236.651 701.255 236.524 699.694 236.619 698.049L236.858 693.897L237.095 690.212L237.332 686.084L237.554 683.069L237.809 679.858C237.916 678.515 237.92 677.274 237.989 675.915C238.059 674.516 238.358 673.232 238.144 671.755L238.399 669.52C238.468 668.924 238.571 668.294 238.592 667.6L238.701 663.968C238.741 662.626 238.873 661.401 238.986 660.049L239.197 657.501L239.42 652.881L239.677 648.497L239.881 644.84L240.121 642.269C240.3 640.353 240.47 638.525 240.173 636.613L230.947 623.436L226.661 617.13C227.405 615.958 228.926 614.558 229.265 614.938L233.614 619.825L236.726 623.169C237.215 623.694 237.43 624.005 237.926 624.559L240.189 627.086C240.328 627.242 240.651 627.294 240.776 627.256C240.917 627.212 241.088 627.011 241.099 626.762L241.253 623.163L241.52 619.956L241.713 616.487C241.78 615.297 241.854 614.216 241.96 612.998L242.2 610.227C242.309 608.976 242.542 607.77 242.409 606.501L247.369 606.312L248.919 634.974L249.551 645.209L257.422 637.987L263.957 631.913L266.406 634.301L262.123 639.713L251.921 652.572C251.347 653.296 250.377 654.05 250.094 654.949L250.709 667.976L251.019 668.797H251.019Z" fill="#966D4C"/>
<path id="Vector_9" d="M251.261 671.876C251.1 671.65 251.054 671.377 251.05 671.088C251.482 671.194 251.258 671.648 251.261 671.876Z" fill="#97C464"/>
</g>
<path id="Vector_10" d="M262.294 600.827L259.737 604.796C258.735 605.057 257.895 604.723 256.858 604.633C255.624 604.526 254.158 604.993 253.028 604.309C252.235 603.829 251.885 602.569 251.626 601.656C251.282 600.446 250.259 599.132 250.516 597.806C250.779 596.455 252.071 594.973 253.149 594.121C254.022 593.43 255.716 594.142 256.395 594.741C257.545 595.758 258.565 595.619 259.941 595.419L262.331 595.569C262.832 597.199 263.001 599.728 262.294 600.827Z" fill="#E66E61"/>
<path id="Vector_11" d="M222.443 653.665C220.39 652.616 218.292 651.444 216.862 649.679C216.255 648.063 216.758 645.902 217.183 644.276C219.705 643.127 221.09 644.429 222.395 643.639L225.939 641.494L228.006 644.256C228.947 645.513 228.468 648.777 228.083 650.93L222.443 653.665V653.665Z" fill="#E66E61"/>
</g>
</g>
<g id="Group 9">
<path id="Vector_12" d="M1195.08 638.574L1195.6 648.371L1197.07 675.417L1197.62 687.237L1182.89 688.189L1184.99 654.867C1184.91 653.447 1185.06 652.269 1185.17 650.912L1185.34 648.819C1185.79 647.404 1185.5 645.875 1185.6 644.449L1186.06 637.922L1186.39 632.554L1183.13 628.213L1174.95 617.971C1174.32 617.184 1173.87 616.396 1173.08 615.647L1175.37 613.51C1176.29 614.62 1177.23 615.378 1178.24 616.294L1186.96 624.257L1188.63 598.175L1192.99 598.319L1193.62 611.769L1193.91 615.472L1206.29 604.203C1207.14 604.977 1207.81 605.612 1208.28 606.512L1194.22 622.673L1195.08 638.574V638.574Z" fill="#2C6890"/>
<path id="Vector_13" d="M1154 600.655C1154.51 594.526 1156.19 588.758 1158.49 583.078C1161.13 576.549 1167.1 570.71 1173.31 567.441C1174.16 566.995 1174.83 566.521 1175.78 566.178C1180.14 564.591 1184.55 563.349 1189.26 563.235C1193.2 563.14 1198.24 564.77 1202.17 566.205C1205.25 567.333 1207.96 569.115 1210.53 571.21L1216.09 576.675C1218.1 578.655 1219.37 581.093 1220.93 583.384C1221.71 584.516 1222.24 585.673 1222.58 587.03C1223.19 589.427 1224.05 591.746 1224.32 594.234L1224.49 601.539C1224.63 608.009 1222.99 614.371 1220.24 620.266C1218.94 623.037 1217.17 625.413 1215.35 627.789C1214.62 628.733 1213.64 629.361 1212.81 630.121C1212.06 630.801 1211.42 631.472 1210.59 632.086C1208.31 633.773 1205.83 635.046 1203.19 636.188C1200.54 637.331 1197.76 637.77 1195.08 638.574L1194.22 622.674L1208.28 606.513C1207.81 605.612 1207.14 604.978 1206.29 604.204L1193.91 615.472L1193.62 611.77L1192.99 598.32L1188.63 598.176L1186.96 624.258L1178.24 616.295C1177.23 615.379 1176.29 614.62 1175.37 613.511L1173.08 615.648C1173.87 616.397 1174.32 617.185 1174.95 617.972L1183.13 628.214L1186.39 632.555L1186.06 637.923C1185.66 638.211 1185.18 638.123 1184.64 638.016C1179.35 636.962 1174.51 634.859 1169.77 632.379C1163.16 628.924 1158.58 622.191 1156.49 615.18L1154.96 610.061" fill="#8CCA77"/>
<path id="Vector_14" d="M1206.48 594.31C1207.52 593.468 1208.06 592.153 1208.87 591.17C1210.04 589.747 1210.38 588.258 1210.32 586.335C1210.3 585.459 1210.45 584.255 1209.42 583.806C1207.83 583.115 1206.07 583.373 1204.3 583.673C1203.08 582.301 1201.12 581.279 1199.29 581.954C1198.18 582.362 1197.57 583.811 1196.83 584.66C1196.4 585.145 1195.83 585.659 1196 586.36C1196.51 588.493 1197.24 590.555 1198.08 592.525C1198.54 593.588 1199.3 593.971 1200.37 594.022L1204.77 594.233C1205.26 594.257 1205.99 594.706 1206.48 594.31H1206.48Z" fill="#97C464"/>
<path id="Vector_15" d="M1169.72 607.995C1171.88 606.831 1173.91 605.919 1176.04 605.057L1176.54 600.444C1176.66 599.324 1176.35 598.246 1175.71 597.386L1173.61 594.589C1172.08 595.334 1170.82 596.187 1169.49 597.071C1168.73 597.569 1166.3 596.821 1164.08 597.899C1163.4 599.829 1163.29 601.739 1163.52 603.805C1165.52 605.358 1167.49 606.877 1169.72 607.995L1169.72 607.995Z" fill="#97C464"/>
<path id="Vector_16" d="M1206.48 594.31C1205.99 594.706 1205.26 594.257 1204.77 594.233L1200.37 594.022C1199.3 593.971 1198.54 593.588 1198.08 592.525C1197.24 590.555 1196.51 588.493 1196 586.36C1195.83 585.659 1196.4 585.145 1196.83 584.66C1197.57 583.811 1198.18 582.362 1199.29 581.954C1201.12 581.279 1203.08 582.301 1204.3 583.673C1206.07 583.373 1207.83 583.115 1209.42 583.806C1210.45 584.255 1210.3 585.459 1210.33 586.335C1210.38 588.258 1210.04 589.747 1208.87 591.17C1208.06 592.153 1207.52 593.468 1206.48 594.31Z" fill="#E66E61"/>
<path id="Vector_17" d="M1169.72 607.995C1167.49 606.877 1165.52 605.358 1163.52 603.804C1163.29 601.739 1163.4 599.829 1164.08 597.899C1166.3 596.821 1168.73 597.569 1169.48 597.07C1170.82 596.187 1172.08 595.334 1173.61 594.589L1175.71 597.386C1176.35 598.246 1176.66 599.324 1176.54 600.444L1176.04 605.057C1173.91 605.919 1171.88 606.831 1169.72 607.995L1169.72 607.995Z" fill="#E66E61"/>
</g>
<g id="Group 11">
<g id="Group_3">
<path id="Vector_18" d="M1272.65 716.071C1271.75 715.352 1272.47 713.614 1272.56 712.666L1272.86 709.482L1272.99 705.645L1273.21 701.064L1273.48 697.137L1273.76 692.889C1273.94 690.124 1274.12 687.538 1274.38 684.754L1274.66 681.652L1274.92 676.847L1275.19 671.77L1275.46 668.118C1275.59 666.294 1275.58 664.608 1275.72 662.771L1276 658.833L1276.33 655.971C1276.56 654.042 1277.06 651.608 1276.24 649.744L1272.49 644.796C1271.29 643.204 1270.42 641.256 1268.75 640.11C1267.12 638.988 1266.26 637.343 1265.24 635.683C1263.46 632.795 1260.33 630.886 1260.48 629.504C1260.66 627.797 1263.28 626.02 1264.32 627.031C1265.01 627.704 1265.53 628.677 1266.48 629.115C1266.8 629.259 1266.85 630.015 1267.06 630.178L1270.83 633.219L1272.95 635.05L1276.78 638.925C1277.49 638.235 1277.7 637.307 1277.7 636.318L1277.72 632.149C1277.73 630.849 1278 629.751 1278.07 628.445L1278.26 625.066C1278.42 622.083 1278.81 619.312 1278.84 616.331L1279.39 611.294C1279.44 610.841 1280.29 610.677 1280.67 610.698L1284.93 610.926C1285.69 613.679 1285.3 616.385 1285.5 619.158L1285.81 623.367L1286.02 627.041L1286.34 632.641C1287.46 632.887 1288.13 632.169 1288.84 631.498L1291.47 629.037L1293.44 627.392C1294.94 625.521 1296.39 623.995 1298.47 622.764C1299.28 622.285 1299.91 620.719 1301.08 620.785C1301.91 620.884 1303.29 622.089 1303.57 623.005C1303.89 624.048 1302.68 625.114 1302.1 625.783L1300.35 627.775C1298.57 629.811 1296.61 631.54 1295.15 633.864C1294.62 634.7 1293.89 635.684 1293.13 636.266C1291.44 637.565 1290.32 639.054 1289.03 640.751C1288.41 641.578 1286.96 642.434 1286.92 643.681C1287.04 645.851 1287.68 648.061 1287.53 650.338C1287.39 652.624 1287.49 654.792 1287.61 657.136L1287.89 662.498L1288.2 666.431L1288.52 673.468L1288.75 676.67L1288.86 680.798C1288.89 682.009 1289.03 683.223 1289.11 684.446L1289.36 688.382L1289.57 695.422L1289.85 700.264C1290.02 703.182 1290.33 705.987 1290.49 708.945L1290.81 715.176C1288.26 715.733 1285.85 715.545 1283.21 715.654C1281.91 715.708 1280.66 716.169 1279.28 715.913C1277.54 715.589 1275.43 716.665 1272.65 716.071L1272.65 716.071Z" fill="#966D4C"/>
<path id="Vector_19" d="M1275.92 607.343C1273.48 606.731 1268.71 604.099 1267.6 602.66L1263.83 597.746L1264.43 593.211L1265.82 585.445L1272.57 589.522L1275.63 591.59C1276.53 594.083 1277.29 596.551 1278.64 598.883L1275.92 607.343H1275.92Z" fill="#279F77"/>
<path id="Vector_20" d="M1257.58 633.711L1252.72 634.303C1251.21 634.487 1249.27 635.09 1247.89 634.356L1240.16 630.254C1239.6 627.364 1239.23 624.702 1239 621.626L1246.28 621.063L1252.83 624.149C1253.86 625.325 1254.31 626.79 1255.02 628.144C1255.96 629.935 1257 631.468 1257.58 633.712V633.711Z" fill="#279F77"/>
<path id="Vector_21" d="M1302.74 653.947L1303.53 660.15L1294.99 661.613C1290.76 655.976 1289.16 655.51 1290.25 647.792L1290.84 643.641C1292.68 643.848 1293.85 644.945 1295.34 645.639C1296.99 646.403 1298.33 647.138 1299.57 648.509C1300.33 649.339 1301.97 649.915 1302.2 651.125L1302.74 653.947H1302.74Z" fill="#279F77"/>
<path id="Vector_22" d="M1249.67 652.288L1243.86 645.327C1245.04 643.71 1246.15 642.214 1247.68 641.12L1250.32 638.623C1254.2 637.928 1257.99 637.899 1261.99 638.472L1258.76 646.262L1256.12 649.847L1249.67 652.288Z" fill="#279F77"/>
<path id="Vector_23" d="M1282.46 589.33C1279.28 588.243 1275.81 586.677 1273.63 584.545L1270.37 581.37L1270.54 573.874L1273.86 573.201L1279.04 572.293L1283.13 578.69C1283.86 579.839 1283.7 580.728 1283.52 581.999L1282.46 589.33V589.33Z" fill="#279F77"/>
<path id="Vector_24" d="M1305.99 617.981L1306.66 612.366C1306.91 610.249 1307.66 608.546 1308.61 606.754C1309.33 605.408 1309.92 604.55 1311.34 603.793L1316.4 601.099C1317.75 602.713 1318.63 604.652 1319.59 606.533L1321.09 609.447C1319.61 611.609 1318.15 613.822 1316.2 615.718C1312.98 616.852 1309.77 617.251 1305.99 617.981L1305.99 617.981Z" fill="#279F77"/>
<path id="Vector_25" d="M1316.71 632.882L1314.56 632.059L1313.27 630.107C1312.27 630.749 1311.34 630.754 1310.71 629.917L1306.48 624.312L1311.44 621.949C1312.68 621.358 1313.99 620.819 1315.44 621.19L1320.78 622.552L1324.56 624.411L1323.37 632.523L1318.58 633.007C1317.97 633.069 1317.3 633.109 1316.71 632.882V632.882Z" fill="#279F77"/>
<path id="Vector_26" d="M1314.34 640.535C1315.14 641.099 1315.75 642.026 1316.5 642.882C1316.96 643.407 1318.47 644.481 1317.89 645.218L1313.88 650.261C1313 651.369 1311.97 651.915 1310.58 651.172C1308.05 649.824 1304.47 649.252 1302.49 646.946C1300.25 644.349 1299.23 640.693 1297.94 637.752C1300.74 638.012 1300.8 636.255 1302.43 638.073C1303.62 639.402 1304.88 641.573 1306.81 641.955C1308.64 642.316 1310.96 641.233 1312.7 640.685C1313.47 640.44 1313.62 640.034 1314.34 640.535Z" fill="#279F77"/>
<path id="Vector_27" d="M1263.7 620.241C1263.05 618.687 1265.47 619.829 1265.49 617.433C1265.52 615.542 1266.14 613.296 1265.12 611.571C1264.4 610.359 1263.32 609.478 1263.7 607.946C1264.03 607.467 1264.56 607.581 1265.16 607.926L1272.15 611.972C1273.06 613.137 1274.24 614.797 1274.76 616.251C1275.97 619.65 1275.49 623.167 1275.62 626.815L1269.78 624.905C1268.3 624.421 1266.32 624.112 1265.46 622.833L1263.7 620.241Z" fill="#279F77"/>
<path id="Vector_28" d="M1297.88 592.109C1296.83 591.305 1295.47 590.442 1294 590.474C1293.22 590.571 1292.8 591.621 1292.31 592.206C1291.75 592.88 1290.4 593.86 1290.57 594.92C1290.94 597.269 1291.69 599.64 1292.9 601.656C1293.11 601.994 1294.2 602.074 1294.34 602.463C1294.02 603.479 1293.27 604.05 1292.32 604.621C1291.91 604.867 1291.59 605.63 1290.97 605.724L1284.1 606.771C1283.69 606.832 1283.02 606.678 1282.75 606.539C1282.5 606.404 1282.33 605.758 1282.43 605.37C1282.85 603.737 1282.73 602.227 1282.73 600.551C1282.73 599.106 1284.58 595.388 1285.75 593.503C1288.27 591.26 1291.29 589.398 1294.5 588.505L1297.9 587.559L1297.88 592.109L1297.88 592.109Z" fill="#279F77"/>
<path id="Vector_29" d="M1301.57 602.263C1301.55 601.824 1301.36 600.943 1301.78 600.496C1303.66 598.458 1304.37 595.861 1303.62 593.115C1303.25 592.775 1302.33 592.747 1301.9 592.742C1302.38 590.231 1304.15 588.596 1306.48 587.415L1311.11 585.063L1314.1 593.149C1314.45 594.083 1314.68 594.873 1313.78 595.599C1312.02 597.021 1311.71 598.875 1308.66 600.029L1302.33 602.42C1302.03 602.53 1301.73 602.344 1301.57 602.263V602.263Z" fill="#279F77"/>
<path id="Vector_30" d="M1316.71 632.882L1315.35 633.001C1315.65 635.21 1315.06 637.266 1314.08 639.247C1313.85 639.71 1314.07 640.253 1314.34 640.535C1313.62 640.034 1313.47 640.44 1312.7 640.685C1310.96 641.233 1308.64 642.316 1306.81 641.955C1304.88 641.572 1303.62 639.402 1302.43 638.073C1300.8 636.255 1300.74 638.012 1297.94 637.752C1299.27 637.033 1301.27 637.583 1301.29 636.287C1301.31 634.425 1301.72 632.415 1303.09 631.076C1305.13 629.071 1308.62 633.207 1310.71 629.916C1311.34 630.753 1312.27 630.749 1313.27 630.106L1314.56 632.059L1316.71 632.882V632.882Z" fill="#F3D55E"/>
<path id="Vector_31" d="M1268.61 659.667C1265.9 659.655 1263.4 659.656 1260.98 659.196C1260.57 656.168 1260.41 652.697 1261.76 650.303C1261.78 649.228 1262.52 648.53 1263.41 648.061L1270.03 644.565C1271.27 647.493 1271.89 650.393 1272.48 653.321L1268.61 659.667Z" fill="#279F77"/>
<path id="Vector_32" d="M1263.7 620.241C1262.11 620.133 1260.78 621.614 1259.14 621.808C1257.53 621.997 1255.99 620.308 1254.79 619.439C1253.9 618.796 1252.93 618.428 1252.55 617.394C1252.34 616.845 1252.23 616.301 1251.56 616.275C1253.44 615.72 1252.22 612.993 1253.32 611.693C1254.2 610.655 1256.04 611.617 1256.93 610.219C1258.55 611.784 1259.77 609.193 1261.65 608.604C1262.32 608.391 1263.28 608.569 1263.7 607.945C1263.32 609.478 1264.4 610.359 1265.12 611.57C1266.14 613.296 1265.52 615.541 1265.49 617.432C1265.47 619.828 1263.05 618.687 1263.7 620.241Z" fill="#F3D55E"/>
<path id="Vector_33" d="M1296.66 620.419C1294.39 621.761 1291.83 622.458 1289.06 622.994L1288.78 618.289C1288.71 617 1287.84 614.88 1288.92 613.831L1292.6 610.267L1302.18 608.095L1299.99 616.983L1298.62 619.263L1296.66 620.419Z" fill="#279F77"/>
<path id="Vector_34" d="M1294.89 584.181C1293.11 585.687 1291.22 586.667 1289.2 587.735L1288.46 583.68L1288.04 579.431C1287.94 578.424 1287.36 576.872 1288.04 576.056L1291.65 571.739L1301.07 576.558L1298.65 581L1294.89 584.181Z" fill="#279F77"/>
<path id="Vector_35" d="M1297.88 592.109C1298.11 592.288 1298.14 592.704 1298.78 592.711L1301.9 592.743C1302.33 592.748 1303.25 592.776 1303.62 593.116C1304.37 595.861 1303.67 598.458 1301.78 600.497C1301.36 600.944 1301.55 601.825 1301.57 602.263C1301.08 602.013 1300.45 602.66 1300.04 603.035L1294.34 602.463C1294.2 602.074 1293.11 601.994 1292.9 601.656C1291.69 599.64 1290.94 597.269 1290.57 594.92C1290.4 593.86 1291.75 592.881 1292.31 592.206C1292.8 591.621 1293.22 590.571 1294 590.474C1295.47 590.443 1296.83 591.306 1297.88 592.109V592.109Z" fill="#F3D55E"/>
<path id="Vector_36" d="M1259.06 601.074C1257.93 601.428 1257.01 600.493 1256.01 599.846C1254.19 598.664 1252.16 597.819 1250.94 595.928L1249.05 591.82L1253.94 586.825C1254.71 586.038 1255.3 584.972 1256.3 584.508L1259.3 588.097C1259.99 588.925 1260.23 589.389 1260.39 590.426C1260.68 592.229 1260.74 593.951 1260.31 595.762L1259.06 601.073L1259.06 601.074Z" fill="#279F77"/>
<g id="Group_4">
<path id="Vector_37" d="M1257.23 609.278C1257.16 609.332 1256.99 609.48 1256.98 609.581C1256.97 609.757 1257.02 610.073 1256.93 610.22C1256.04 611.617 1254.2 610.655 1253.32 611.693C1252.22 612.993 1253.44 615.72 1251.56 616.276L1249.09 617.003L1240.86 615.284L1241.65 612.524C1242.21 610.581 1243.11 608.902 1243.51 606.826L1250.29 604.379C1251.8 603.833 1253.61 604.467 1255.16 604.727L1258.53 605.293C1258.01 606.842 1257.31 607.928 1257.23 609.279L1257.23 609.278Z" fill="#279F77"/>
<path id="Vector_38" d="M1256.98 609.581C1256.99 609.48 1257.16 609.332 1257.23 609.278C1257.22 609.418 1257.11 609.542 1256.98 609.581Z" fill="#935A24"/>
</g>
</g>
</g>
<g id="Group_5">
<path id="Vector_39" d="M1338.18 20.8426L1338.35 25.0599C1338.37 25.4 1338.05 25.5641 1337.84 25.8302L1335.76 28.4579C1335.49 28.796 1335.43 28.8586 1335.08 28.9269L1328.62 30.1944C1327.9 30.3355 1327.38 30.5636 1326.84 31.0657L1317.56 39.6935L1308.87 36.5386L1301.3 42.8802L1295.82 38.2203C1295.18 37.6781 1294.56 37.227 1294 36.5234C1294.34 36.5388 1294.7 36.1801 1294.96 36.1592C1296.18 36.0595 1297.21 35.5921 1298.38 35.3328L1301.74 34.5867L1303.32 34.2171C1303.7 34.1291 1304.1 33.9671 1304.47 33.8894L1305.84 33.6065C1306.2 33.5322 1306.43 33.2794 1306.72 33.1508C1307.54 32.7797 1308.33 32.4599 1309.01 31.8165C1309.48 31.3645 1310.24 31.297 1310.78 30.9776C1311.56 30.5095 1312.22 30.0678 1313.03 29.7767L1314.09 29.6609L1317.65 28.0895L1313.51 21.9877L1313.19 15.8378L1310.16 13.762C1309.96 13.6254 1309.9 13.4401 1309.86 13.2958L1309.94 8.84502L1312.32 0L1325.16 17.9403C1326.09 19.2433 1326.96 20.3605 1327.84 21.7822L1331.52 18.9463L1336.96 18.973C1337.39 19.5894 1338.15 20.1719 1338.18 20.8426Z" fill="#2C6890"/>
<path id="Vector_40" d="M1309.85 13.296C1309.9 13.4402 1309.96 13.6257 1310.16 13.7621L1313.19 15.8379L1313.51 21.9879L1317.65 28.0897L1314.09 29.6611L1313.03 29.7768C1312.95 29.4259 1312.71 29.2408 1312.36 29.0574L1304.76 25.0654C1303.85 24.5868 1303.26 24.127 1303.45 23.0621L1310.47 25.0652L1302.31 19.5692L1301.59 16.166L1309.03 19.2089C1307.59 17.6445 1305.96 16.7119 1304.48 15.4624L1300.98 12.7758C1300.65 12.5227 1300.58 12.236 1300.5 11.7903L1299.7 7.09456L1307.11 11.7445C1308.05 12.3331 1308.87 12.9843 1309.85 13.296Z" fill="#329AC4"/>
<path id="Vector_41" d="M1335.08 28.9269L1331.67 34.647L1330.05 37.3159L1318.02 40.0348C1317.86 40.0713 1317.68 40.0216 1317.66 39.9541L1317.56 39.6935L1326.84 31.0657C1327.38 30.5636 1327.9 30.3357 1328.62 30.1944L1335.08 28.9269H1335.08Z" fill="#329AC4"/>
<path id="Vector_42" d="M1301.59 16.1657C1301.53 16.025 1301.45 15.9075 1301.36 15.8062L1300.8 12.7646L1300.98 12.7753L1304.48 15.462C1305.96 16.7115 1307.59 17.6441 1309.03 19.2084L1301.59 16.1657Z" fill="#2C6890"/>
<path id="Vector_43" d="M1303.45 23.062C1302.51 22.5105 1302.54 20.7075 1302.31 19.569L1310.47 25.0651L1303.45 23.062Z" fill="#2C6890"/>
<path id="Vector_44" d="M1338.35 25.0599L1338.18 20.8426C1339.89 21.5126 1341.8 21.6084 1343.38 22.3989L1338.35 25.0599Z" fill="#329AC4"/>
</g>
<g id="Group_6">
<path id="Vector_45" d="M1389.81 56.0671C1389.82 56.2044 1389.7 56.2578 1389.56 56.2483C1389.46 56.241 1389.35 56.2249 1389.32 56.094L1389.81 56.0671Z" fill="#1A7859"/>
<g id="Group_7">
<path id="Vector_46" d="M1408.2 37.9123C1408 39.2383 1408.15 40.5401 1408.26 41.862C1408.32 42.5571 1407.46 43.2955 1407.03 43.8177L1405.51 45.6937L1404.25 45.812L1398.07 47.1881L1394.78 50.2464L1393.79 51.0739C1393.17 51.5977 1392.69 52.1302 1392.11 52.6798L1390.09 54.5744L1388.69 56.0645C1388.27 56.0451 1387.89 55.9574 1387.43 55.7949L1380.25 53.2361C1379.29 53.7434 1378.69 54.5381 1377.89 55.2176L1373.58 58.8959C1373.38 59.0656 1373.16 59.1521 1372.97 59.1165C1372.94 59.111 1371.36 58.0006 1371 57.294C1371.11 57.068 1371.29 56.8125 1371.58 56.6126L1375.53 53.8645C1375.7 53.7457 1375.84 53.2059 1375.66 53.2551L1369.28 54.983C1368.99 55.062 1368.74 55.2528 1368.52 55.4548C1368.17 55.1968 1367.61 54.9214 1367.2 54.4844L1366 53.1955C1368.15 52.8197 1370.16 52.1977 1372.29 51.6642L1377.43 50.3705L1379.91 49.0935L1385.79 46.0752L1382.7 42.9632C1383.02 42.4422 1382.86 41.8623 1382.78 41.2769L1381.9 34.5549L1381.58 32.429C1381.49 31.8861 1381.61 31.1409 1381.18 30.7167L1379.46 29.0174L1378.08 27.7726C1377.73 27.4557 1377.38 27.1268 1376.94 27.1014C1376.97 27.0072 1376.95 26.8772 1376.94 26.7757L1376.96 26.6032C1377.04 25.87 1377.14 25.1075 1377.28 24.3092L1378.07 20C1378.87 20.5882 1379.46 21.1747 1380 21.8343C1380.39 22.3127 1380.81 22.6319 1381.25 23.0587L1385.2 26.9607L1394.9 36.6423C1395.77 37.513 1396.49 38.4744 1397.59 39.0786C1397.98 39.2926 1398.41 38.7602 1398.66 38.5632L1401.71 36.1837L1407.06 36.1906C1407.46 36.7594 1408.12 37.3291 1408.2 37.9123H1408.2Z" fill="#1A7859"/>
<path id="Vector_47" d="M1405.51 45.6937L1400.56 53.7345L1396.22 54.7063L1392.73 55.3916C1392.59 55.4204 1392.48 55.5172 1392.43 55.5995L1392.28 55.5751C1391.49 55.5918 1390.65 55.7115 1389.94 56.0775L1389.81 56.0673L1389.32 56.0942L1388.69 56.0647L1390.09 54.5745L1392.11 52.68C1392.69 52.1303 1393.17 51.5978 1393.79 51.0741L1394.78 50.2465L1398.07 47.1883L1404.25 45.8122L1405.51 45.6939L1405.51 45.6937Z" fill="#279F77"/>
<path id="Vector_48" d="M1382.7 42.9634L1381.2 41.3858L1379.58 39.7383L1378.43 38.4703C1378.01 38.0079 1378.06 37.6659 1377.99 37.1352L1376.88 28.8237C1376.8 28.2093 1376.79 27.6446 1376.94 27.1015C1377.38 27.1269 1377.73 27.4557 1378.08 27.7727L1379.46 29.0176L1381.18 30.7169C1381.61 31.1413 1381.49 31.8864 1381.58 32.4291L1381.9 34.5551L1382.78 41.2771C1382.86 41.8625 1383.02 42.4424 1382.7 42.9634Z" fill="#279F77"/>
<path id="Vector_49" d="M1408.26 41.862C1408.15 40.5401 1408 39.2383 1408.2 37.9123C1408.83 37.871 1409.35 38.0477 1409.95 38.2186C1411.05 38.5304 1412.2 38.6809 1413.26 39.255C1412.95 40.0222 1412.18 40.1904 1411.54 40.5241L1409.71 41.4787C1409.23 41.7264 1408.81 41.916 1408.26 41.862Z" fill="#279F77"/>
<path id="Vector_50" d="M1371 57.294C1370.53 57.4997 1370.06 57.271 1369.72 56.866C1369.3 56.3628 1368.74 55.9844 1368.52 55.4548C1368.74 55.2528 1368.99 55.0622 1369.28 54.983L1375.66 53.2551C1375.84 53.2057 1375.7 53.7457 1375.53 53.8645L1371.58 56.6126C1371.29 56.8126 1371.11 57.0682 1371 57.294Z" fill="#279F77"/>
<path id="Vector_51" d="M1396.22 54.7063C1395.02 55.1986 1393.72 55.5113 1392.43 55.5995C1392.48 55.5172 1392.59 55.4204 1392.73 55.3916L1396.22 54.7063Z" fill="#1A7859"/>
<path id="Vector_52" d="M1392.28 55.5751C1391.56 55.8923 1390.72 56.1369 1389.94 56.0775C1390.65 55.7117 1391.49 55.5918 1392.28 55.5751Z" fill="#1A7859"/>
</g>
</g>
</g>
</g>
</g>
<defs>
<clipPath id="clip0_0_1">
<rect width="1512" height="976.346" fill="white" transform="translate(0 -229)"/>
</clipPath>
</defs>
</svg>
