<svg width="353" height="248" viewBox="0 0 353 248" fill="none" xmlns="http://www.w3.org/2000/svg">

<g id="Frame 31">
<g id="MacBook Pro 14&#34; - 2" clip-path="url(#clip0_0_1)">

<g id="Group 12">
<g id="BG" clip-path="url(#clip1_0_1)">
<path id="Vector" d="M18.9829 93.3745L23.5421 244.136L248.848 248V93.3745H18.9829Z" fill="#F5F3EA"/>
<path id="Vector_2" d="M290.976 10.6909L248.849 93.3745V248L335.236 227.679L338.236 85.7902L299.734 10.6909H290.976Z" fill="#CECAA5"/>
<path id="Vector_3" d="M168.101 246.929V125.419L232.152 126.307L230.884 247.695L168.101 246.929Z" fill="#E66E61"/>
<path id="Vector_4" d="M177.89 136.367L178.63 179.851L220.647 180.581L220.305 136.828L177.89 136.367Z" fill="#F3D55E"/>
<path id="Vector_5" d="M40.2441 142.107L40.1091 208.497L146.92 209.315L147.253 142.052L40.2441 142.107Z" fill="#F3D55E"/>
<path id="Vector_6" d="M305.807 3.21269e-05L353 94.9483L337.561 95.9133L297.845 18.6533L261.667 107.645L0 102.58L58.7974 -0.752197" fill="#E66E61"/>
<g id="Group 15">
<g id="Group">
<path id="Vector_7" d="M137.866 209.245L110.172 209.033L109.69 201.38C107.459 204.207 104.195 206.037 100.924 204.381C96.8255 202.306 93.1129 199.446 90.2184 196.155C92.0549 194.484 93.5237 192.467 94.2664 190.356C96.3632 190.008 98.5432 191.854 103.202 194.813L112.1 184.901C113.163 183.716 114.667 183.209 116.013 182.87L119.609 191.854L124.927 182.589C133.081 183.687 137.458 194.019 138.501 202.102L137.866 209.245L137.866 209.245Z" fill="#E66E61"/>
<path id="Vector_8" d="M107.567 182.913C108.154 177.219 106.176 172.427 107.714 166.019C108.941 160.91 112.947 157.768 118.088 157.349C122.301 157.007 126.683 157.882 129.458 161.257C133.787 166.522 131.978 174.689 135.551 181.316L107.567 182.912V182.913Z" fill="#329AC4"/>
<path id="Vector_9" d="M125.52 181.691C125.482 182.046 125.123 182.247 124.927 182.589L119.609 191.854L116.013 182.87C115.922 182.645 115.822 182.2 115.867 181.986C116.157 180.594 115.681 179.805 114.615 179.194C110.75 176.975 108.68 172.84 109.508 168.432C109.78 166.979 110.599 165.832 111.893 165.067C116.098 167.517 120.808 169.523 125.858 169.629C126.498 169.643 127.424 168.578 127.982 168.828C128.546 169.082 129.382 169.624 129.598 170.308C130.438 172.966 128.568 174.365 126.697 175.71C124.933 176.979 124.775 180.087 125.52 181.691V181.691Z" fill="#F5F3EA"/>
</g>
<path id="Vector_10" d="M77.3275 180.876C78.7434 183.164 79.1652 185.967 78.4941 188.488C78.4941 188.488 77.1779 188.834 76.6201 188.875C76.3368 189.47 76.4365 191.12 76.8711 191.703C76.33 192.372 75.6729 192.975 74.8965 193.487C74.0546 194.043 73.2705 194.329 73.4593 195.405C72.495 196.831 70.9666 197.341 69.2601 196.256C67.2851 197.541 65.4111 196.814 64.0399 195.335C64.186 193.055 62.8255 193.096 60.9459 191.483C60.2659 190.899 60.1926 190.317 60.0388 189.491C58.968 183.73 63.9397 177.593 64.3786 177.569C66.1286 177.47 77.3275 180.876 77.3275 180.876Z" fill="#F5F3EA"/>
<path id="Vector_11" d="M76.9981 178.974C77.3224 179.504 77.1997 180.365 77.3275 180.876C77.3275 180.876 75.9295 184.742 69.7186 185.567L69.0799 183.83C66.8654 189.265 63.1362 188.706 63.1362 188.706C63.1362 188.706 61.7458 187.479 61.234 187.532C60.1615 187.641 59.9966 188.722 60.0388 189.491C60.0848 190.33 60.2655 190.899 60.946 191.483C60.3516 191.45 59.7998 191.133 59.4158 190.616C57.6616 193.969 54.1296 195.459 50.6603 194.508C54.3512 191.73 48.4676 182.539 58.8508 181.688C61.1795 172.43 72.8828 172.246 76.9981 178.974V178.974Z" fill="#2C6890"/>
<path id="Vector_12" d="M73.9745 187.464C74.524 187.464 74.9695 187.018 74.9695 186.467C74.9695 185.916 74.524 185.469 73.9745 185.469C73.425 185.469 72.9796 185.916 72.9796 186.467C72.9796 187.018 73.425 187.464 73.9745 187.464Z" fill="#2C6890"/>
<path id="Vector_13" d="M81.4671 208.821C81.4671 200.112 77.1161 197.5 73.4589 195.405C72.4946 196.831 70.9662 197.341 69.2597 196.256C67.2847 197.541 65.4107 196.814 64.0395 195.335C60.7759 197.67 56.0654 200.004 56.0654 208.637L81.4671 208.821Z" fill="#E66E61"/>
<path id="Vector_14" d="M90.5043 196.289C93.1325 196.289 95.263 194.153 95.263 191.519C95.263 188.884 93.1325 186.748 90.5043 186.748C87.8762 186.748 85.7456 188.884 85.7456 191.519C85.7456 194.153 87.8762 196.289 90.5043 196.289Z" fill="#F5F3EA"/>
<path id="Vector_15" d="M113.64 171.801C114.189 171.801 114.635 171.354 114.635 170.803C114.635 170.252 114.189 169.806 113.64 169.806C113.09 169.806 112.645 170.252 112.645 170.803C112.645 171.354 113.09 171.801 113.64 171.801Z" fill="#2C6890"/>
<path id="Vector_16" d="M120.658 170.139C121.207 170.139 121.653 169.692 121.653 169.141C121.653 168.59 121.207 168.144 120.658 168.144C120.108 168.144 119.663 168.59 119.663 169.141C119.663 169.692 120.108 170.139 120.658 170.139Z" fill="#2C6890"/>
<path id="Vector_17" d="M121.435 172.912L115.738 175.257C116.258 177.355 118.367 178.229 120.046 177.629C123.078 176.546 121.819 173.482 121.435 172.912Z" fill="#CECAA5"/>
</g>
<path id="Vector_18" d="M218.74 48.4119H241.862L225.465 87.4212L218.74 48.4119Z" fill="#AA3A2E"/>
<path id="Vector_19" d="M53.8539 29.011L51.9016 86.4245L225.465 87.4212L226.465 28.011L53.8539 29.011Z" fill="#2C6890"/>
<path id="Vector_20" d="M58.8853 33.5042L58.08 81.2384L220.713 82.928V33.5042H58.8853Z" fill="#F5F3EA"/>
</g>
</g>
</g>
</g>
<defs>
<clipPath id="clip0_0_1">
<rect width="1512" height="822" fill="white" transform="translate(-947 -508.654)"/>
</clipPath>
<clipPath id="clip1_0_1">
<rect width="353" height="248" fill="white"/>
</clipPath>
</defs>
</svg>
