<svg width="239" height="58" viewBox="0 0 239 58" fill="none" xmlns="http://www.w3.org/2000/svg">

<g id="Frame 31">
<g id="MacBook Pro 14&#34; - 1">

<g id="Frame 3">
<g id="Group 6">
<g id="Vector">
<path d="M81.0273 34.1349V10.0049H87.8081V34.1349H81.0273ZM65 34.1349V10.0049H71.7808V34.1349H65ZM71.3013 24.7242V19.0709H81.5068V24.7242H71.3013Z" fill="#083136"/>
<path d="M102.009 34.4452C99.8171 34.4452 97.8993 34.0315 96.2554 33.2042C94.6344 32.3539 93.3673 31.2048 92.4541 29.757C91.5637 28.2863 91.1185 26.6201 91.1185 24.7587C91.1185 22.8972 91.5523 21.2426 92.4198 19.7948C93.3103 18.324 94.5317 17.1865 96.0842 16.3821C97.6367 15.5548 99.3833 15.1411 101.324 15.1411C103.15 15.1411 104.817 15.5203 106.324 16.2787C107.831 17.0141 109.029 18.1057 109.92 19.5535C110.81 21.0013 111.255 22.7593 111.255 24.8276C111.255 25.0574 111.244 25.3217 111.221 25.6205C111.198 25.9192 111.175 26.195 111.153 26.4478H96.4609V23.0006H107.694L105.228 23.9658C105.251 23.1155 105.091 22.3801 104.749 21.7597C104.429 21.1392 103.972 20.6566 103.379 20.3119C102.808 19.9671 102.134 19.7948 101.358 19.7948C100.582 19.7948 99.897 19.9671 99.3034 20.3119C98.7326 20.6566 98.2874 21.1507 97.9678 21.7941C97.6481 22.4146 97.4883 23.15 97.4883 24.0003V25C97.4883 25.9192 97.671 26.7121 98.0363 27.3785C98.4244 28.045 98.9723 28.562 99.6801 28.9297C100.388 29.2744 101.233 29.4468 102.214 29.4468C103.128 29.4468 103.904 29.3204 104.543 29.0676C105.205 28.7918 105.856 28.3782 106.495 27.8266L109.92 31.4117C109.029 32.3998 107.933 33.1582 106.632 33.6868C105.331 34.1924 103.79 34.4452 102.009 34.4452Z" fill="#083136"/>
<path d="M114.255 34.1349V8.5571H120.762V34.1349H114.255Z" fill="#083136"/>
<path d="M124.991 34.1349V8.5571H131.498V34.1349H124.991Z" fill="#083136"/>
<path d="M145.041 34.4452C143.009 34.4452 141.206 34.0315 139.63 33.2042C138.055 32.3769 136.811 31.2393 135.897 29.7915C135.007 28.3207 134.562 26.6431 134.562 24.7587C134.562 22.8742 135.007 21.2081 135.897 19.7603C136.811 18.3125 138.055 17.1865 139.63 16.3821C141.206 15.5548 143.009 15.1411 145.041 15.1411C147.073 15.1411 148.877 15.5548 150.452 16.3821C152.05 17.1865 153.295 18.3125 154.185 19.7603C155.075 21.2081 155.521 22.8742 155.521 24.7587C155.521 26.6431 155.075 28.3207 154.185 29.7915C153.295 31.2393 152.05 32.3769 150.452 33.2042C148.877 34.0315 147.073 34.4452 145.041 34.4452ZM145.041 29.24C145.795 29.24 146.457 29.0676 147.028 28.7229C147.621 28.3782 148.089 27.8726 148.432 27.2062C148.774 26.5167 148.945 25.7009 148.945 24.7587C148.945 23.8165 148.774 23.0236 148.432 22.3801C148.089 21.7137 147.621 21.2081 147.028 20.8634C146.457 20.5187 145.795 20.3463 145.041 20.3463C144.311 20.3463 143.649 20.5187 143.055 20.8634C142.484 21.2081 142.016 21.7137 141.651 22.3801C141.308 23.0236 141.137 23.8165 141.137 24.7587C141.137 25.7009 141.308 26.5167 141.651 27.2062C142.016 27.8726 142.484 28.3782 143.055 28.7229C143.649 29.0676 144.311 29.24 145.041 29.24Z" fill="#083136"/>
<path d="M65.4966 53.3594V43.6146H72.1351V44.5055H66.52V52.4684H72.3426V53.3594H65.4966ZM66.4094 48.8489V47.9719H71.5266V48.8489H66.4094Z" fill="#083136"/>
<path d="M78.3441 53.3594V43.6146H79.1878L85.8678 52.0786H85.4252V43.6146H86.4348V53.3594H85.5912L78.925 44.8953H79.3676V53.3594H78.3441Z" fill="#083136"/>
<path d="M97.4365 53.4429C96.6989 53.4429 96.0166 53.3223 95.3896 53.081C94.7719 52.8304 94.2325 52.4823 93.7715 52.0369C93.3197 51.5914 92.9647 51.067 92.7065 50.4638C92.4576 49.8605 92.3331 49.2016 92.3331 48.487C92.3331 47.7724 92.4576 47.1134 92.7065 46.5102C92.9647 45.9069 93.3243 45.3825 93.7853 44.9371C94.2463 44.4916 94.7857 44.1482 95.4034 43.9069C96.0304 43.6563 96.7127 43.531 97.4503 43.531C98.1879 43.531 98.861 43.647 99.4695 43.8791C100.087 44.1111 100.613 44.4637 101.046 44.9371L100.41 45.5914C100.004 45.183 99.5571 44.8907 99.0685 44.7143C98.5798 44.538 98.0543 44.4498 97.4918 44.4498C96.8925 44.4498 96.3393 44.5519 95.8322 44.7561C95.3343 44.951 94.8963 45.2341 94.5183 45.6053C94.1495 45.9672 93.8591 46.3942 93.647 46.886C93.4442 47.3686 93.3427 47.9023 93.3427 48.487C93.3427 49.0624 93.4442 49.596 93.647 50.0879C93.8591 50.5798 94.1495 51.0113 94.5183 51.3826C94.8963 51.7445 95.3343 52.0276 95.8322 52.2318C96.3393 52.4267 96.8879 52.5241 97.478 52.5241C98.0312 52.5241 98.5521 52.4406 99.0408 52.2735C99.5387 52.1065 99.9951 51.8234 100.41 51.4243L100.991 52.2039C100.53 52.6123 99.9905 52.9232 99.3727 53.1366C98.755 53.3408 98.1096 53.4429 97.4365 53.4429ZM100.991 52.2039L100.009 52.0786V48.487H100.991V52.2039Z" fill="#083136"/>
<path d="M107.483 53.3594V43.6146H108.507V52.4684H113.928V53.3594H107.483Z" fill="#083136"/>
<path d="M119.223 53.3594V43.6146H120.247V53.3594H119.223Z" fill="#083136"/>
<path d="M129.662 53.4429C128.943 53.4429 128.251 53.3269 127.587 53.0949C126.933 52.8536 126.426 52.5473 126.066 52.1761L126.467 51.3826C126.808 51.7167 127.265 51.9997 127.836 52.2318C128.417 52.4545 129.026 52.5659 129.662 52.5659C130.27 52.5659 130.764 52.4916 131.142 52.3431C131.529 52.1854 131.81 51.9765 131.985 51.7167C132.17 51.4568 132.262 51.1691 132.262 50.8536C132.262 50.4731 132.151 50.1668 131.93 49.9348C131.718 49.7027 131.437 49.5218 131.086 49.3918C130.736 49.2526 130.349 49.132 129.925 49.0299C129.501 48.9278 129.076 48.8211 128.652 48.7097C128.228 48.5891 127.836 48.4313 127.477 48.2364C127.126 48.0415 126.841 47.7863 126.619 47.4707C126.407 47.1459 126.301 46.7236 126.301 46.2039C126.301 45.7213 126.426 45.2805 126.675 44.8814C126.933 44.473 127.325 44.1482 127.85 43.9069C128.376 43.6563 129.049 43.531 129.869 43.531C130.413 43.531 130.953 43.6099 131.487 43.7677C132.022 43.9162 132.483 44.125 132.871 44.3941L132.525 45.2155C132.11 44.9371 131.667 44.7329 131.197 44.603C130.736 44.473 130.289 44.4081 129.856 44.4081C129.275 44.4081 128.795 44.487 128.417 44.6447C128.039 44.8025 127.758 45.016 127.574 45.2851C127.398 45.545 127.311 45.8419 127.311 46.1761C127.311 46.5566 127.417 46.8628 127.629 47.0949C127.85 47.3269 128.136 47.5078 128.486 47.6378C128.846 47.7677 129.238 47.8837 129.662 47.9858C130.086 48.0879 130.506 48.1993 130.92 48.3199C131.345 48.4406 131.732 48.5983 132.082 48.7932C132.442 48.9788 132.728 49.2294 132.94 49.545C133.161 49.8605 133.272 50.2735 133.272 50.784C133.272 51.2573 133.143 51.6981 132.884 52.1065C132.626 52.5055 132.23 52.8304 131.695 53.081C131.169 53.3223 130.492 53.4429 129.662 53.4429Z" fill="#083136"/>
<path d="M146.178 53.3594V43.6146H147.188V53.3594H146.178ZM139.097 53.3594V43.6146H140.121V53.3594H139.097ZM140.01 48.8628V47.958H146.275V48.8628H140.01Z" fill="#083136"/>
<path d="M163.829 53.4429C163.109 53.4429 162.418 53.3269 161.754 53.0949C161.099 52.8536 160.592 52.5473 160.233 52.1761L160.634 51.3826C160.975 51.7167 161.431 51.9997 162.003 52.2318C162.584 52.4545 163.192 52.5659 163.829 52.5659C164.437 52.5659 164.93 52.4916 165.308 52.3431C165.696 52.1854 165.977 51.9765 166.152 51.7167C166.336 51.4568 166.429 51.1691 166.429 50.8536C166.429 50.4731 166.318 50.1668 166.097 49.9348C165.885 49.7027 165.603 49.5218 165.253 49.3918C164.903 49.2526 164.516 49.132 164.091 49.0299C163.667 48.9278 163.243 48.8211 162.819 48.7097C162.395 48.5891 162.003 48.4313 161.643 48.2364C161.293 48.0415 161.007 47.7863 160.786 47.4707C160.574 47.1459 160.468 46.7236 160.468 46.2039C160.468 45.7213 160.592 45.2805 160.841 44.8814C161.099 44.473 161.491 44.1482 162.017 43.9069C162.542 43.6563 163.215 43.531 164.036 43.531C164.58 43.531 165.119 43.6099 165.654 43.7677C166.189 43.9162 166.65 44.125 167.037 44.3941L166.691 45.2155C166.277 44.9371 165.834 44.7329 165.364 44.603C164.903 44.473 164.456 44.4081 164.022 44.4081C163.441 44.4081 162.962 44.487 162.584 44.6447C162.206 44.8025 161.925 45.016 161.74 45.2851C161.565 45.545 161.477 45.8419 161.477 46.1761C161.477 46.5566 161.583 46.8628 161.796 47.0949C162.017 47.3269 162.303 47.5078 162.653 47.6378C163.013 47.7677 163.404 47.8837 163.829 47.9858C164.253 48.0879 164.672 48.1993 165.087 48.3199C165.511 48.4406 165.899 48.5983 166.249 48.7932C166.608 48.9788 166.894 49.2294 167.106 49.545C167.328 49.8605 167.438 50.2735 167.438 50.784C167.438 51.2573 167.309 51.6981 167.051 52.1065C166.793 52.5055 166.396 52.8304 165.862 53.081C165.336 53.3223 164.658 53.4429 163.829 53.4429Z" fill="#083136"/>
<path d="M177.468 53.4429C176.74 53.4429 176.067 53.3223 175.449 53.081C174.832 52.8304 174.297 52.4823 173.845 52.0369C173.393 51.5914 173.038 51.067 172.78 50.4638C172.531 49.8605 172.407 49.2016 172.407 48.487C172.407 47.7724 172.531 47.1134 172.78 46.5102C173.038 45.9069 173.393 45.3825 173.845 44.9371C174.306 44.4916 174.845 44.1482 175.463 43.9069C176.081 43.6563 176.754 43.531 177.482 43.531C178.183 43.531 178.842 43.6517 179.46 43.893C180.078 44.125 180.599 44.4777 181.023 44.951L180.373 45.6053C179.976 45.1969 179.538 44.9046 179.059 44.7283C178.58 44.5426 178.063 44.4498 177.51 44.4498C176.929 44.4498 176.39 44.5519 175.892 44.7561C175.394 44.951 174.961 45.2341 174.592 45.6053C174.223 45.9672 173.933 46.3942 173.72 46.886C173.518 47.3686 173.416 47.9023 173.416 48.487C173.416 49.0717 173.518 49.6099 173.72 50.1018C173.933 50.5844 174.223 51.0113 174.592 51.3826C174.961 51.7445 175.394 52.0276 175.892 52.2318C176.39 52.4267 176.929 52.5241 177.51 52.5241C178.063 52.5241 178.58 52.4313 179.059 52.2457C179.538 52.0601 179.976 51.7631 180.373 51.3547L181.023 52.009C180.599 52.4823 180.078 52.8397 179.46 53.081C178.842 53.3223 178.178 53.4429 177.468 53.4429Z" fill="#083136"/>
<path d="M193.747 53.3594V43.6146H194.756V53.3594H193.747ZM186.665 53.3594V43.6146H187.689V53.3594H186.665ZM187.578 48.8628V47.958H193.843V48.8628H187.578Z" fill="#083136"/>
<path d="M205.744 53.4429C205.016 53.4429 204.338 53.3223 203.711 53.081C203.093 52.8304 202.554 52.4823 202.093 52.0369C201.641 51.5821 201.286 51.0577 201.028 50.4638C200.779 49.8605 200.654 49.2016 200.654 48.487C200.654 47.7724 200.779 47.1181 201.028 46.5241C201.286 45.9208 201.641 45.3965 202.093 44.951C202.554 44.4962 203.093 44.1482 203.711 43.9069C204.329 43.6563 205.006 43.531 205.744 43.531C206.472 43.531 207.145 43.6563 207.763 43.9069C208.381 44.1482 208.916 44.4916 209.367 44.9371C209.828 45.3825 210.183 45.9069 210.432 46.5102C210.691 47.1134 210.82 47.7724 210.82 48.487C210.82 49.2016 210.691 49.8605 210.432 50.4638C210.183 51.067 209.828 51.5914 209.367 52.0369C208.916 52.4823 208.381 52.8304 207.763 53.081C207.145 53.3223 206.472 53.4429 205.744 53.4429ZM205.744 52.5241C206.325 52.5241 206.86 52.4267 207.348 52.2318C207.846 52.0276 208.275 51.7445 208.634 51.3826C209.003 51.0113 209.289 50.5844 209.492 50.1018C209.695 49.6099 209.796 49.0717 209.796 48.487C209.796 47.9023 209.695 47.3686 209.492 46.886C209.289 46.3942 209.003 45.9672 208.634 45.6053C208.275 45.2341 207.846 44.951 207.348 44.7561C206.86 44.5519 206.325 44.4498 205.744 44.4498C205.163 44.4498 204.624 44.5519 204.126 44.7561C203.628 44.951 203.195 45.2341 202.826 45.6053C202.466 45.9672 202.18 46.3942 201.968 46.886C201.765 47.3686 201.664 47.9023 201.664 48.487C201.664 49.0624 201.765 49.596 201.968 50.0879C202.18 50.5798 202.466 51.0113 202.826 51.3826C203.195 51.7445 203.628 52.0276 204.126 52.2318C204.624 52.4267 205.163 52.5241 205.744 52.5241Z" fill="#083136"/>
<path d="M220.942 53.4429C220.213 53.4429 219.535 53.3223 218.909 53.081C218.291 52.8304 217.751 52.4823 217.29 52.0369C216.839 51.5821 216.484 51.0577 216.225 50.4638C215.977 49.8605 215.852 49.2016 215.852 48.487C215.852 47.7724 215.977 47.1181 216.225 46.5241C216.484 45.9208 216.839 45.3965 217.29 44.951C217.751 44.4962 218.291 44.1482 218.909 43.9069C219.526 43.6563 220.204 43.531 220.942 43.531C221.67 43.531 222.343 43.6563 222.961 43.9069C223.579 44.1482 224.113 44.4916 224.565 44.9371C225.026 45.3825 225.381 45.9069 225.63 46.5102C225.888 47.1134 226.017 47.7724 226.017 48.487C226.017 49.2016 225.888 49.8605 225.63 50.4638C225.381 51.067 225.026 51.5914 224.565 52.0369C224.113 52.4823 223.579 52.8304 222.961 53.081C222.343 53.3223 221.67 53.4429 220.942 53.4429ZM220.942 52.5241C221.522 52.5241 222.057 52.4267 222.546 52.2318C223.044 52.0276 223.473 51.7445 223.832 51.3826C224.201 51.0113 224.487 50.5844 224.69 50.1018C224.892 49.6099 224.994 49.0717 224.994 48.487C224.994 47.9023 224.892 47.3686 224.69 46.886C224.487 46.3942 224.201 45.9672 223.832 45.6053C223.473 45.2341 223.044 44.951 222.546 44.7561C222.057 44.5519 221.522 44.4498 220.942 44.4498C220.361 44.4498 219.821 44.5519 219.323 44.7561C218.826 44.951 218.392 45.2341 218.023 45.6053C217.664 45.9672 217.378 46.3942 217.166 46.886C216.963 47.3686 216.862 47.9023 216.862 48.487C216.862 49.0624 216.963 49.596 217.166 50.0879C217.378 50.5798 217.664 51.0113 218.023 51.3826C218.392 51.7445 218.826 52.0276 219.323 52.2318C219.821 52.4267 220.361 52.5241 220.942 52.5241Z" fill="#083136"/>
<path d="M231.907 53.3594V43.6146H232.931V52.4684H238.352V53.3594H231.907Z" fill="#083136"/>
<path d="M166.915 34.1349V15.4169H159.552V10.0049H181.024V15.4169H173.695V34.1349H166.915Z" fill="#083136"/>
<path d="M182.874 34.1349V15.4514H189.073V20.8979L188.148 19.3467C188.696 17.9448 189.586 16.8992 190.819 16.2098C192.052 15.4974 193.548 15.1411 195.306 15.1411V21.0358C195.009 20.9898 194.746 20.9668 194.518 20.9668C194.312 20.9438 194.084 20.9323 193.833 20.9323C192.509 20.9323 191.436 21.3 190.614 22.0354C189.792 22.7478 189.381 23.9199 189.381 25.5515V34.1349H182.874Z" fill="#083136"/>
<path d="M207.55 34.4452C205.358 34.4452 203.44 34.0315 201.796 33.2042C200.175 32.3539 198.908 31.2048 197.995 29.757C197.104 28.2863 196.659 26.6201 196.659 24.7587C196.659 22.8972 197.093 21.2426 197.961 19.7948C198.851 18.324 200.072 17.1865 201.625 16.3821C203.177 15.5548 204.924 15.1411 206.865 15.1411C208.691 15.1411 210.358 15.5203 211.865 16.2787C213.371 17.0141 214.57 18.1057 215.46 19.5535C216.351 21.0013 216.796 22.7593 216.796 24.8276C216.796 25.0574 216.785 25.3217 216.762 25.6205C216.739 25.9192 216.716 26.195 216.693 26.4478H202.002V23.0006H213.234L210.769 23.9658C210.792 23.1155 210.632 22.3801 210.289 21.7597C209.97 21.1392 209.513 20.6566 208.919 20.3119C208.349 19.9671 207.675 19.7948 206.899 19.7948C206.123 19.7948 205.438 19.9671 204.844 20.3119C204.273 20.6566 203.828 21.1507 203.508 21.7941C203.189 22.4146 203.029 23.15 203.029 24.0003V25C203.029 25.9192 203.212 26.7121 203.577 27.3785C203.965 28.045 204.513 28.562 205.221 28.9297C205.929 29.2744 206.773 29.4468 207.755 29.4468C208.668 29.4468 209.444 29.3204 210.084 29.0676C210.746 28.7918 211.397 28.3782 212.036 27.8266L215.46 31.4117C214.57 32.3998 213.474 33.1582 212.173 33.6868C210.871 34.1924 209.33 34.4452 207.55 34.4452Z" fill="#083136"/>
<path d="M229.522 34.4452C227.33 34.4452 225.413 34.0315 223.769 33.2042C222.148 32.3539 220.881 31.2048 219.967 29.757C219.077 28.2863 218.632 26.6201 218.632 24.7587C218.632 22.8972 219.066 21.2426 219.933 19.7948C220.823 18.324 222.045 17.1865 223.597 16.3821C225.15 15.5548 226.896 15.1411 228.837 15.1411C230.664 15.1411 232.33 15.5203 233.837 16.2787C235.344 17.0141 236.543 18.1057 237.433 19.5535C238.323 21.0013 238.769 22.7593 238.769 24.8276C238.769 25.0574 238.757 25.3217 238.734 25.6205C238.712 25.9192 238.689 26.195 238.666 26.4478H223.974V23.0006H235.207L232.741 23.9658C232.764 23.1155 232.604 22.3801 232.262 21.7597C231.942 21.1392 231.486 20.6566 230.892 20.3119C230.321 19.9671 229.648 19.7948 228.871 19.7948C228.095 19.7948 227.41 19.9671 226.817 20.3119C226.246 20.6566 225.801 21.1507 225.481 21.7941C225.161 22.4146 225.002 23.15 225.002 24.0003V25C225.002 25.9192 225.184 26.7121 225.549 27.3785C225.938 28.045 226.486 28.562 227.193 28.9297C227.901 29.2744 228.746 29.4468 229.728 29.4468C230.641 29.4468 231.417 29.3204 232.056 29.0676C232.718 28.7918 233.369 28.3782 234.008 27.8266L237.433 31.4117C236.543 32.3998 235.447 33.1582 234.145 33.6868C232.844 34.1924 231.303 34.4452 229.522 34.4452Z" fill="#083136"/>
</g>
<g id="graphics">
<path id="Vector_2" d="M41.082 40.1281C40.4245 39.6722 39.8903 39.921 36.685 41.7439C33.691 43.4469 31.475 42.5496 31.0571 40.6239C30.6017 36.399 36.1129 36.0889 37.1022 36.0675C39.0234 36.0263 39.6847 34.7415 38.7189 34.7415C37.753 34.7415 36.5093 33.8647 35.5391 32.82C34.4816 31.6813 34.185 29.6003 34.2788 28.5007C34.3725 27.4012 34.4019 26.1689 34.3429 24.6274C34.2083 21.1032 33.1104 19.5001 33.1104 19.5001C33.1104 19.5001 32.4056 18.5886 31.8899 19.0151C31.3742 19.4419 32.6721 20.5987 32.6644 24.52C32.6598 26.8306 32.2792 30.0681 31.1859 32.7646C28.8946 37.0589 24.8915 36.3106 24.514 32.1768C24.514 32.1743 24.5135 32.173 24.5135 32.1704C24.3163 29.8631 24.5595 27.1073 26.603 25.0117C26.8567 24.752 26.5573 24.2964 26.2413 24.4731C24.7863 25.287 22.5553 27.7458 22.1335 30.6819C20.901 28.2998 19.5311 24.3536 20.8987 20.1258C20.8382 18.7212 20.2458 19.0779 19.8624 20.1258C19.8624 20.1258 17.3693 24.2423 19.22 29.2472C16.6073 27.6644 14.5926 27.4857 13.332 27.3393C12.0875 27.1946 10.5577 27.6876 12.7838 28.5546C16.1263 29.8566 19.8621 31.3987 21.6597 35.6811C21.9815 36.4479 22.2367 37.292 22.4393 38.1587C22.1734 38.067 21.8829 37.9838 21.5639 37.8913C17.9364 36.833 14.0225 37.0251 13.0876 37.2472C11.831 37.5462 11.8254 38.2409 12.0446 38.637C12.2507 39.0092 12.4737 39.2217 13.4689 39.2586C16.0987 39.3549 21.3003 39.5849 22.3034 43.0287C23.165 45.9887 22.9627 49.2045 22.9438 49.4711L22.1581 56.652C22.1192 57.1576 22.5147 57.589 23.0174 57.589H31.6373C32.1402 57.589 32.5356 57.1576 32.4963 56.652L31.9313 52.3247C31.9313 52.3227 31.9313 52.3209 31.931 52.3191C31.4385 45.9519 36.0988 45.039 38.3697 43.7746C41.5701 41.9929 41.739 40.5845 41.0817 40.1289L41.082 40.1281ZM29.8027 45.5392C29.8027 47.0167 28.9983 48.2141 28.0067 48.2141C27.015 48.2141 26.2101 47.0169 26.2101 45.5392C26.2101 44.0615 27.0145 42.8648 28.0067 42.8648C28.9988 42.8648 29.8027 44.062 29.8027 45.5392Z" fill="#966D4C"/>
<path id="Vector_3" d="M21.3465 46.7508C21.3465 50.046 18.6973 52.717 15.4295 52.717C12.1616 52.717 9.5124 50.046 9.5124 46.7508C9.5124 43.4557 12.1616 40.7844 15.4295 40.7844C18.6973 40.7844 21.3465 43.4555 21.3465 46.7508Z" fill="#8CCA77"/>
<path id="Vector_4" d="M41.0702 50.3553C41.0702 52.3925 39.4328 54.043 37.4133 54.043C35.3938 54.043 33.7564 52.3925 33.7564 50.3553C33.7564 48.3182 35.3935 46.6679 37.4133 46.6679C39.4331 46.6679 41.0702 48.3184 41.0702 50.3553Z" fill="#279F77"/>
<path id="Vector_5" d="M53.5621 19.2804C53.5621 22.4619 51.0046 25.0397 47.8504 25.0397C44.6962 25.0397 42.139 22.4622 42.139 19.2804C42.139 16.0986 44.6962 13.5213 47.8504 13.5213C51.0046 13.5213 53.5621 16.0988 53.5621 19.2804Z" fill="#8CCA77"/>
<path id="Vector_6" d="M10.3753 39.7899C10.3753 41.7807 8.77469 43.3946 6.80063 43.3946C4.82658 43.3946 3.22572 41.7807 3.22572 39.7899C3.22572 37.7991 4.82632 36.1854 6.80063 36.1854C8.77495 36.1854 10.3753 37.7994 10.3753 39.7899Z" fill="#279F77"/>
<path id="Vector_7" d="M43.5151 8.19675C43.5151 10.4734 41.6843 12.3195 39.4265 12.3195C37.1686 12.3195 35.3381 10.4737 35.3381 8.19675C35.3381 5.9198 37.1686 4.07429 39.4265 4.07429C41.6843 4.07429 43.5151 5.92032 43.5151 8.19675Z" fill="#279F77"/>
<path id="Vector_8" d="M55 28.9342C55 30.5472 53.7029 31.8551 52.103 31.8551C50.5032 31.8551 49.2061 30.5472 49.2061 28.9342C49.2061 27.3213 50.5029 26.0131 52.103 26.0131C53.7031 26.0131 55 27.321 55 28.9342Z" fill="#279F77"/>
<path id="Vector_9" d="M19.7579 16.4489C19.7579 17.1943 19.1584 17.7986 18.4192 17.7986C17.6799 17.7986 17.0804 17.1943 17.0804 16.4489C17.0804 15.7035 17.6799 15.0987 18.4192 15.0987C19.1584 15.0987 19.7579 15.7032 19.7579 16.4489Z" fill="#279F77"/>
<path id="Vector_10" d="M6.73907 17.0429C6.73907 18.45 5.60721 19.591 4.21199 19.591C2.81676 19.591 1.6849 18.45 1.6849 17.0429C1.6849 15.6357 2.81651 14.4949 4.21199 14.4949C5.60747 14.4949 6.73907 15.636 6.73907 17.0429Z" fill="#F3D55E"/>
<path id="Vector_11" d="M48.3639 10.3722C48.3639 11.4133 47.5268 12.2574 46.4945 12.2574C45.4623 12.2574 44.625 11.4133 44.625 10.3722C44.625 9.33111 45.4618 8.48704 46.4945 8.48704C47.5273 8.48704 48.3639 9.33111 48.3639 10.3722Z" fill="#F3D55E"/>
<path id="Vector_12" d="M35.3384 2.83124C35.3384 4.12426 34.299 5.17233 33.0166 5.17233C31.7343 5.17233 30.6949 4.12426 30.6949 2.83124C30.6949 1.53823 31.7343 0.490417 33.0166 0.490417C34.299 0.490417 35.3384 1.53848 35.3384 2.83124Z" fill="#279F77"/>
<path id="Vector_13" d="M52.8632 37.7597C52.8632 40.6427 50.5451 42.9805 47.6862 42.9805C44.8273 42.9805 42.5086 40.643 42.5086 37.7597C42.5086 34.8765 44.8262 32.539 47.6862 32.539C50.5461 32.539 52.8632 34.8765 52.8632 37.7597Z" fill="#279F77"/>
<path id="Vector_14" d="M40.6595 19.9846C40.6595 21.5864 39.3715 22.8849 37.7832 22.8849C36.1949 22.8849 34.9067 21.5862 34.9067 19.9846C34.9067 18.383 36.1943 17.0843 37.7832 17.0843C39.372 17.0843 40.6595 18.3827 40.6595 19.9846Z" fill="#279F77"/>
<path id="Vector_15" d="M28.7291 19.5841C28.7291 21.5442 27.153 23.1334 25.2091 23.1334C23.2652 23.1334 21.6893 21.5442 21.6893 19.5841C21.6893 17.6239 23.2654 16.0347 25.2091 16.0347C27.1527 16.0347 28.7291 17.6237 28.7291 19.5841Z" fill="#F3D55E"/>
<path id="Vector_16" d="M35.2078 13.7145C35.2078 15.7431 33.5763 17.388 31.5642 17.388C29.5521 17.388 27.9211 15.7431 27.9211 13.7145C27.9211 11.6858 29.5521 10.0405 31.5642 10.0405C33.5763 10.0405 35.2078 11.6853 35.2078 13.7145Z" fill="#279F77"/>
<path id="Vector_17" d="M15.8405 5.2344C15.8405 6.3327 14.9574 7.22313 13.8682 7.22313C12.779 7.22313 11.8957 6.3327 11.8957 5.2344C11.8957 4.13611 12.7787 3.24568 13.8682 3.24568C14.9577 3.24568 15.8405 4.13611 15.8405 5.2344Z" fill="#8CCA77"/>
<path id="Vector_18" d="M31.0648 27.0076C31.0648 28.1404 30.1537 29.0586 29.0307 29.0586C27.9078 29.0586 26.9964 28.1404 26.9964 27.0076C26.9964 25.8748 27.907 24.9568 29.0307 24.9568C30.1544 24.9568 31.0648 25.8753 31.0648 27.0076Z" fill="#279F77"/>
<path id="Vector_19" d="M7.48547 22.1737C7.48547 22.9804 6.83665 23.6341 6.03686 23.6341C5.23707 23.6341 4.5885 22.9802 4.5885 22.1737C4.5885 21.3672 5.23707 20.713 6.03686 20.713C6.83665 20.713 7.48547 21.367 7.48547 22.1737Z" fill="#279F77"/>
<path id="Vector_20" d="M16.5662 33.2434C16.5662 34.384 15.6494 35.3084 14.5186 35.3084C13.3877 35.3084 12.4707 34.384 12.4707 33.2434C12.4707 32.1029 13.3877 31.1785 14.5186 31.1785C15.6494 31.1785 16.5662 32.1032 16.5662 33.2434Z" fill="#8CCA77"/>
<path id="Vector_21" d="M17.0732 8.63179C17.0732 9.21133 16.6073 9.68141 16.0323 9.68141C15.4573 9.68141 14.9916 9.21133 14.9916 8.63179C14.9916 8.05226 15.4576 7.58218 16.0323 7.58218C16.6071 7.58218 17.0732 8.05226 17.0732 8.63179Z" fill="#279F77"/>
<path id="Vector_22" d="M44.8096 28.9342C44.8096 31.4744 42.7674 33.5332 40.2485 33.5332C37.7295 33.5332 35.6875 31.4744 35.6875 28.9342C35.6875 26.394 37.7295 24.335 40.2485 24.335C42.7674 24.335 44.8096 26.3943 44.8096 28.9342Z" fill="#F3D55E"/>
<path id="Vector_23" d="M29.0031 5.71787C29.0031 8.87546 26.4643 11.4357 23.3326 11.4357C20.2009 11.4357 17.6623 8.87572 17.6623 5.71787C17.6623 2.56002 20.2011 0 23.3326 0C26.4641 0 29.0031 2.56028 29.0031 5.71787Z" fill="#F3D55E"/>
<path id="Vector_24" d="M12.922 11.1227C12.9701 9.17832 11.4459 7.5627 9.51756 7.51416C7.58921 7.46562 5.98696 9.00254 5.93882 10.947C5.89069 12.8914 7.41489 14.507 9.34323 14.5556C11.2716 14.6041 12.8738 13.0672 12.922 11.1227Z" fill="#279F77"/>
<path id="Vector_25" d="M2.55467 22.388C2.55467 22.9825 2.07674 23.4641 1.48718 23.4641C0.897621 23.4641 0.419945 22.9825 0.419945 22.388C0.419945 21.7935 0.897877 21.3119 1.48718 21.3119C2.07649 21.3119 2.55467 21.7938 2.55467 22.388Z" fill="#279F77"/>
<path id="Vector_26" d="M29.4624 32.0004C29.4624 32.9498 28.6984 33.7199 27.7568 33.7199C26.8153 33.7199 26.0515 32.9498 26.0515 32.0004C26.0515 31.051 26.815 30.2808 27.7568 30.2808C28.6987 30.2808 29.4624 31.0507 29.4624 32.0004Z" fill="#F3D55E"/>
<path id="Vector_27" d="M46.9393 45.8115C46.9393 46.7611 46.1757 47.531 45.2339 47.531C44.2921 47.531 43.5286 46.7611 43.5286 45.8115C43.5286 44.8618 44.2924 44.0919 45.2339 44.0919C46.1755 44.0919 46.9393 44.8621 46.9393 45.8115Z" fill="#8CCA77"/>
<path id="Vector_28" d="M20.0113 35.2736C20.0113 35.9253 19.4867 36.4543 18.8401 36.4543C18.1936 36.4543 17.6692 35.9253 17.6692 35.2736C17.6692 34.622 18.1936 34.0927 18.8401 34.0927C19.4867 34.0927 20.0113 34.6217 20.0113 35.2736Z" fill="#F3D55E"/>
<path id="Vector_29" d="M9.84116 29.8458C9.84116 32.5853 7.63746 34.8077 4.92058 34.8077C2.2037 34.8077 0 32.5853 0 29.8458C0 27.1062 2.2037 24.8841 4.92084 24.8841C7.63797 24.8841 9.84116 27.1062 9.84116 29.8458Z" fill="#F3D55E"/>
<path id="Vector_30" d="M17.2273 25.7025C17.2273 26.2001 16.827 26.6035 16.3335 26.6035C15.84 26.6035 15.4397 26.1998 15.4397 25.7025C15.4397 25.2051 15.84 24.8012 16.3335 24.8012C16.827 24.8012 17.2273 25.2048 17.2273 25.7025Z" fill="#279F77"/>
<path id="Vector_31" d="M38.2381 14.9297C38.2381 15.4577 37.8136 15.8861 37.2899 15.8861C36.7663 15.8861 36.3412 15.4577 36.3412 14.9297C36.3412 14.4017 36.766 13.9731 37.2899 13.9731C37.8139 13.9731 38.2381 14.4017 38.2381 14.9297Z" fill="#8CCA77"/>
<path id="Vector_32" d="M31.226 22.6641C31.226 23.1921 30.8009 23.6205 30.277 23.6205C29.7531 23.6205 29.3286 23.1921 29.3286 22.6641C29.3286 22.1361 29.7536 21.7078 30.277 21.7078C30.8004 21.7078 31.226 22.1361 31.226 22.6641Z" fill="#279F77"/>
<path id="Vector_33" d="M39.663 38.1324C39.663 38.8135 39.1153 39.3652 38.4404 39.3652C37.7656 39.3652 37.2182 38.8132 37.2182 38.1324C37.2182 37.4517 37.7653 36.8999 38.4404 36.8999C39.1156 36.8999 39.663 37.4519 39.663 38.1324Z" fill="#279F77"/>
<path id="Vector_34" d="M43.7445 49.0157C43.7445 49.4371 43.4055 49.7786 42.9878 49.7786C42.5702 49.7786 42.2312 49.4371 42.2312 49.0157C42.2312 48.5943 42.5697 48.2522 42.9878 48.2522C43.406 48.2522 43.7445 48.594 43.7445 49.0157Z" fill="#279F77"/>
<path id="Vector_35" d="M43.6349 42.7736C43.6349 43.195 43.2959 43.5366 42.8782 43.5366C42.4606 43.5366 42.1214 43.195 42.1214 42.7736C42.1214 42.3523 42.4603 42.0102 42.8782 42.0102C43.2961 42.0102 43.6349 42.352 43.6349 42.7736Z" fill="#279F77"/>
<path id="Vector_36" d="M11.228 34.9421C11.228 35.5541 10.7357 36.0505 10.1288 36.0505C9.52186 36.0505 9.02962 35.5541 9.02962 34.9421C9.02962 34.3301 9.52186 33.8338 10.1288 33.8338C10.7357 33.8338 11.228 34.3299 11.228 34.9421Z" fill="#279F77"/>
<path id="Vector_37" d="M36.0163 39.707C36.0163 40.5534 35.3353 41.2401 34.4959 41.2401C33.6565 41.2401 32.9755 40.5534 32.9755 39.707C32.9755 38.8606 33.656 38.1739 34.4959 38.1739C35.3358 38.1739 36.0163 38.8606 36.0163 39.707Z" fill="#8CCA77"/>
<path id="Vector_38" d="M42.0427 45.3973C42.0427 46.1216 41.4603 46.7094 40.7417 46.7094C40.0232 46.7094 39.4402 46.1218 39.4402 45.3973C39.4402 44.6727 40.0232 44.085 40.7417 44.085C41.4603 44.085 42.0427 44.6725 42.0427 45.3973Z" fill="#8CCA77"/>
<path id="Vector_39" d="M48.2336 27.4287C48.2336 28.0314 47.7493 28.5198 47.1518 28.5198C46.5543 28.5198 46.0695 28.0312 46.0695 27.4287C46.0695 26.8263 46.5541 26.3376 47.1518 26.3376C47.7495 26.3376 48.2336 26.8263 48.2336 27.4287Z" fill="#279F77"/>
<path id="Vector_40" d="M31.8526 7.25069C31.8526 7.85315 31.3678 8.34177 30.77 8.34177C30.1723 8.34177 29.6882 7.85315 29.6882 7.25069C29.6882 6.64823 30.1726 6.15961 30.77 6.15961C31.3675 6.15961 31.8526 6.64823 31.8526 7.25069Z" fill="#279F77"/>
<path id="Vector_41" d="M54.5346 33.4923C54.5346 34.003 54.1238 34.4175 53.6165 34.4175C53.1092 34.4175 52.699 34.0033 52.699 33.4923C52.699 32.9812 53.1097 32.5663 53.6165 32.5663C54.1233 32.5663 54.5346 32.9807 54.5346 33.4923Z" fill="#8CCA77"/>
<path id="Vector_42" d="M42.1663 15.2615C42.1663 16.0545 41.528 16.6977 40.7417 16.6977C39.9555 16.6977 39.3169 16.0545 39.3169 15.2615C39.3169 14.4684 39.9547 13.8247 40.7417 13.8247C41.5287 13.8247 42.1663 14.4679 42.1663 15.2615Z" fill="#F3D55E"/>
<path id="Vector_43" d="M26.3325 13.6042C26.3325 14.3056 25.7685 14.8746 25.0724 14.8746C24.3763 14.8746 23.8118 14.3056 23.8118 13.6042C23.8118 12.9029 24.3763 12.3334 25.0724 12.3334C25.7685 12.3334 26.3325 12.9024 26.3325 13.6042Z" fill="#279F77"/>
<path id="Vector_44" d="M17.3473 12.9413C17.3473 13.7951 16.6607 14.4877 15.8134 14.4877C14.9661 14.4877 14.2789 13.7951 14.2789 12.9413C14.2789 12.0874 14.9661 11.3943 15.8134 11.3943C16.6607 11.3943 17.3473 12.0869 17.3473 12.9413Z" fill="#279F77"/>
<path id="Vector_45" d="M23.5109 24.9017C23.5109 25.4967 23.0325 25.9788 22.4424 25.9788C21.8523 25.9788 21.3736 25.4964 21.3736 24.9017C21.3736 24.3069 21.8523 23.8242 22.4424 23.8242C23.0325 23.8242 23.5109 24.3067 23.5109 24.9017Z" fill="#279F77"/>
<path id="Vector_46" d="M47.631 30.73C47.631 31.1339 47.3061 31.4618 46.9053 31.4618C46.5045 31.4618 46.1791 31.1342 46.1791 30.73C46.1791 30.3259 46.5037 29.9978 46.9053 29.9978C47.3068 29.9978 47.631 30.3256 47.631 30.73Z" fill="#8CCA77"/>
<path id="Vector_47" d="M43.8778 13.162C43.8778 13.5661 43.5531 13.8938 43.1521 13.8938C42.751 13.8938 42.4261 13.5659 42.4261 13.162C42.4261 12.7581 42.751 12.43 43.1521 12.43C43.5531 12.43 43.8778 12.7576 43.8778 13.162Z" fill="#279F77"/>
<path id="Vector_48" d="M20.4836 12.72C20.4836 13.1241 20.1587 13.4518 19.7577 13.4518C19.3566 13.4518 19.0314 13.1241 19.0314 12.72C19.0314 12.3159 19.3564 11.988 19.7577 11.988C20.159 11.988 20.4836 12.3159 20.4836 12.72Z" fill="#279F77"/>
<path id="Vector_49" d="M12.3751 30.2327C12.3751 30.6365 12.0502 30.9642 11.6492 30.9642C11.2481 30.9642 10.9232 30.6368 10.9232 30.2327C10.9232 29.8285 11.2479 29.5004 11.6492 29.5004C12.0505 29.5004 12.3751 29.8278 12.3751 30.2327Z" fill="#279F77"/>
<path id="Vector_50" d="M11.2793 25.9237C11.2793 26.3279 10.9544 26.6555 10.5533 26.6555C10.1523 26.6555 9.82736 26.3276 9.82736 25.9237C9.82736 25.5198 10.1523 25.1917 10.5533 25.1917C10.9544 25.1917 11.2793 25.5193 11.2793 25.9237Z" fill="#279F77"/>
<path id="Vector_51" d="M34.2354 7.80344C34.2354 8.20757 33.9104 8.53521 33.5096 8.53521C33.1089 8.53521 32.7834 8.20732 32.7834 7.80344C32.7834 7.39957 33.1081 7.07142 33.5096 7.07142C33.9112 7.07142 34.2354 7.39905 34.2354 7.80344Z" fill="#8CCA77"/>
<path id="Vector_52" d="M22.5931 15.0405C22.5931 15.5515 22.1823 15.9657 21.6753 15.9657C21.1682 15.9657 20.7575 15.5515 20.7575 15.0405C20.7575 14.5295 21.1682 14.115 21.6753 14.115C22.1823 14.115 22.5931 14.5292 22.5931 15.0405Z" fill="#8CCA77"/>
<path id="Vector_53" d="M16.9499 20.4681C16.9499 22.7334 15.128 24.5702 12.8817 24.5702C10.6353 24.5702 8.81377 22.7334 8.81377 20.4681C8.81377 18.2027 10.6351 16.3662 12.8817 16.3662C15.1283 16.3662 16.9499 18.2024 16.9499 20.4681Z" fill="#8CCA77"/>
</g>
</g>
</g>
</g>
</g>
</svg>
